<svg version="1.1" xmlns="http://www.w3.org/2000/svg" xmlns:xlink="http://www.w3.org/1999/xlink" width="20px" height="20px" viewBox="0,0,256,256"><g fill="none" fill-rule="nonzero" stroke="none" stroke-width="1" stroke-linecap="butt" stroke-linejoin="miter" stroke-miterlimit="10" stroke-dasharray="" stroke-dashoffset="0" font-family="none" font-weight="none" font-size="none" text-anchor="none" style="mix-blend-mode: normal"><g transform="scale(5.33333,5.33333)"><path d="M2,9h44v30h-44z" fill="#3f51b5"></path><path d="M24,12l0.547,1.116l1.222,0.178l-0.884,0.868l0.209,1.227l-1.094,-0.579l-1.093,0.579l0.209,-1.227l-0.884,-0.868l1.222,-0.178zM18.746,13.582l0.547,1.116l1.222,0.179l-0.884,0.868l0.209,1.227l-1.093,-0.579l-1.093,0.579l0.208,-1.227l-0.884,-0.868l1.223,-0.179zM15.013,17.049l0.547,1.116l1.223,0.178l-0.884,0.868l0.208,1.227l-1.093,-0.579l-1.093,0.579l0.209,-1.227l-0.884,-0.868l1.222,-0.178zM29.254,13.582l-0.547,1.116l-1.222,0.179l0.884,0.868l-0.209,1.227l1.093,-0.579l1.093,0.579l-0.208,-1.227l0.884,-0.868l-1.223,-0.179zM18.746,30.445l0.547,1.116l1.222,0.179l-0.884,0.868l0.209,1.227l-1.093,-0.579l-1.093,0.579l0.208,-1.227l-0.884,-0.868l1.223,-0.179zM29.254,30.445l-0.547,1.116l-1.222,0.179l0.884,0.868l-0.209,1.227l1.093,-0.579l1.093,0.579l-0.208,-1.227l0.884,-0.868l-1.223,-0.179zM32.987,17.049l-0.547,1.116l-1.223,0.178l0.884,0.868l-0.208,1.227l1.093,-0.579l1.093,0.579l-0.209,-1.227l0.884,-0.868l-1.222,-0.178zM15.013,26.928l0.547,1.116l1.223,0.179l-0.884,0.868l0.208,1.227l-1.093,-0.579l-1.093,0.579l0.209,-1.227l-0.884,-0.868l1.222,-0.179zM32.987,26.928l-0.547,1.116l-1.223,0.179l0.884,0.868l-0.208,1.227l1.093,-0.579l1.093,0.579l-0.209,-1.227l0.884,-0.868l-1.222,-0.179zM34.231,22.305l0.547,1.116l1.222,0.179l-0.884,0.868l0.209,1.227l-1.093,-0.579l-1.093,0.579l0.209,-1.227l-0.887,-0.868l1.223,-0.179zM13.769,22.305l0.547,1.116l1.223,0.179l-0.885,0.868l0.209,1.227l-1.093,-0.579l-1.093,0.579l0.209,-1.227l-0.886,-0.868l1.222,-0.179zM24,32.61l0.547,1.116l1.222,0.179l-0.884,0.868l0.208,1.227l-1.093,-0.579l-1.093,0.579l0.209,-1.227l-0.884,-0.868l1.222,-0.179z" fill="#ffeb3b"></path></g></g></svg>