<svg version="1.1" xmlns="http://www.w3.org/2000/svg" xmlns:xlink="http://www.w3.org/1999/xlink" width="20px" height="20px" viewBox="0,0,256,256"><g fill="none" fill-rule="nonzero" stroke="none" stroke-width="1" stroke-linecap="butt" stroke-linejoin="miter" stroke-miterlimit="10" stroke-dasharray="" stroke-dashoffset="0" font-family="none" font-weight="none" font-size="none" text-anchor="none" style="mix-blend-mode: normal"><g transform="scale(5.33333,5.33333)"><path d="M2,9h44v30h-44z" fill="#e30a17"></path><path d="M20.791,23.186l-0.011,-2.729l1.612,2.201l2.592,-0.85l-1.596,2.212l1.612,2.201l-2.598,-0.834l-1.595,2.213l-0.01,-2.728l-2.598,-0.834z" fill="#ffffff"></path><path d="M17.471,31.086c-3.898,0 -7.059,-3.162 -7.059,-7.06c0,-3.899 3.16,-7.059 7.059,-7.059c0.634,0 1.244,0.091 1.828,0.246c-1.218,-0.748 -2.646,-1.188 -4.181,-1.188c-4.418,0 -8,3.582 -8,8c0,4.418 3.582,8 8,8c1.534,0 2.963,-0.439 4.181,-1.189c-0.584,0.159 -1.195,0.25 -1.828,0.25z" fill="#ffffff"></path></g></g></svg>