<svg version="1.1" xmlns="http://www.w3.org/2000/svg" xmlns:xlink="http://www.w3.org/1999/xlink" width="20px" height="20px" viewBox="0,0,256,256"><g fill="none" fill-rule="nonzero" stroke="none" stroke-width="1" stroke-linecap="butt" stroke-linejoin="miter" stroke-miterlimit="10" stroke-dasharray="" stroke-dashoffset="0" font-family="none" font-weight="none" font-size="none" text-anchor="none" style="mix-blend-mode: normal"><g transform="scale(5.33333,5.33333)"><path d="M1.998,10h44v27h-44z" fill="#eceff1"></path><path d="M2,10h44v3h-44zM2,16h44v3h-44zM2,22h44v3h-44zM2,28h44v3h-44zM2,34h44v3h-44z" fill="#f44336"></path><path d="M2,10h21v15h-21z" fill="#3f51b5"></path><g fill="#ffffff"><path d="M4.25,12l0.463,0.988l1.037,0.158l-0.75,0.77l0.178,1.084l-0.928,-0.512l-0.928,0.512l0.178,-1.084l-0.75,-0.77l1.037,-0.158zM8.25,12l0.463,0.988l1.037,0.158l-0.75,0.77l0.178,1.084l-0.928,-0.512l-0.928,0.512l0.178,-1.084l-0.75,-0.77l1.037,-0.158zM12.25,12l0.463,0.988l1.037,0.158l-0.75,0.77l0.178,1.084l-0.928,-0.512l-0.928,0.512l0.178,-1.084l-0.75,-0.77l1.037,-0.158zM16.25,12l0.463,0.988l1.037,0.158l-0.75,0.77l0.178,1.084l-0.928,-0.512l-0.928,0.512l0.178,-1.084l-0.75,-0.77l1.037,-0.158zM20,12l0.463,0.988l1.037,0.158l-0.75,0.77l0.178,1.084l-0.928,-0.512l-0.928,0.512l0.178,-1.084l-0.75,-0.77l1.037,-0.158zM4.25,20l0.463,0.988l1.037,0.158l-0.75,0.77l0.178,1.084l-0.928,-0.512l-0.928,0.512l0.178,-1.084l-0.75,-0.77l1.037,-0.158zM8.25,20l0.463,0.988l1.037,0.158l-0.75,0.77l0.178,1.084l-0.928,-0.512l-0.928,0.512l0.178,-1.084l-0.75,-0.77l1.037,-0.158zM12.25,20l0.463,0.988l1.037,0.158l-0.75,0.77l0.178,1.084l-0.928,-0.512l-0.928,0.512l0.178,-1.084l-0.75,-0.77l1.037,-0.158zM16.25,20l0.463,0.988l1.037,0.158l-0.75,0.77l0.178,1.084l-0.928,-0.512l-0.928,0.512l0.178,-1.084l-0.75,-0.77l1.037,-0.158zM20,20l0.463,0.988l1.037,0.158l-0.75,0.77l0.178,1.084l-0.928,-0.512l-0.928,0.512l0.178,-1.084l-0.75,-0.77l1.037,-0.158zM5.25,16l0.463,0.988l1.037,0.158l-0.75,0.77l0.178,1.084l-0.928,-0.512l-0.928,0.512l0.178,-1.084l-0.75,-0.77l1.037,-0.158zM9.25,16l0.463,0.988l1.037,0.158l-0.75,0.77l0.178,1.084l-0.928,-0.512l-0.928,0.512l0.178,-1.084l-0.75,-0.77l1.037,-0.158zM13.25,16l0.463,0.988l1.037,0.158l-0.75,0.77l0.178,1.084l-0.928,-0.512l-0.928,0.512l0.178,-1.084l-0.75,-0.77l1.037,-0.158zM17.25,16l0.463,0.988l1.037,0.158l-0.75,0.77l0.178,1.084l-0.928,-0.512l-0.928,0.512l0.178,-1.084l-0.75,-0.77l1.037,-0.158zM21,16l0.463,0.988l1.037,0.158l-0.75,0.77l0.178,1.084l-0.928,-0.512l-0.928,0.512l0.178,-1.084l-0.75,-0.77l1.037,-0.158z"></path></g></g></g></svg>