<?xml version="1.0" standalone="no"?>
<!DOCTYPE svg PUBLIC "-//W3C//DTD SVG 20010904//EN"
 "http://www.w3.org/TR/2001/REC-SVG-20010904/DTD/svg10.dtd">
<svg version="1.0" xmlns="http://www.w3.org/2000/svg"
 width="180.000000pt" height="180.000000pt" viewBox="0 0 180.000000 180.000000"
 preserveAspectRatio="xMidYMid meet">
<metadata>
Created by potrace 1.14, written by Peter Selinger 2001-2017
</metadata>
<g transform="translate(0.000000,180.000000) scale(0.100000,-0.100000)"
fill="#000000" stroke="none">
<path d="M50 972 c0 -651 3 -822 13 -823 14 -1 792 -1 910 0 l77 1 0 163 -1
162 -70 75 c-38 41 -100 110 -137 152 -37 42 -70 77 -75 77 -4 1 -7 -38 -6
-86 0 -49 0 -118 0 -155 l-1 -68 -195 0 -195 0 0 503 0 502 -153 153 c-83 83
-155 155 -159 159 -5 3 -8 -363 -8 -815z"/>
<path d="M803 1652 l-42 -3 0 -160 0 -160 87 -97 c48 -53 101 -112 117 -131
57 -64 74 -81 80 -81 3 0 5 70 5 155 l0 155 195 0 195 0 0 -62 c1 -35 1 -261
1 -503 l0 -440 155 -157 c86 -87 157 -158 159 -158 2 0 3 369 3 820 0 754 -1
820 -17 821 -46 3 -902 4 -938 1z"/>
</g>
</svg>
